<mxfile host="65bd71144e" pages="2">
    <diagram id="diagramid" name="Diagram">
        <mxGraphModel dx="2431" dy="1139" grid="1" gridSize="10" guides="1" tooltips="1" connect="1" arrows="1" fold="1" page="1" pageScale="1" pageWidth="827" pageHeight="1169" background="none" math="0" shadow="0">
            <root>
                <mxCell id="0"/>
                <mxCell id="1" parent="0"/>
                <mxCell id="227" value="" style="rounded=0;whiteSpace=wrap;html=1;fontColor=#5A6C86;" vertex="1" parent="1">
                    <mxGeometry x="-770" y="55" width="1540" height="470" as="geometry"/>
                </mxCell>
                <mxCell id="206" value="Backend" style="fillColor=none;strokeColor=#5A6C86;dashed=1;verticalAlign=top;fontStyle=0;fontColor=#5A6C86;labelBackgroundColor=none;movable=1;resizable=1;rotatable=1;deletable=1;editable=1;connectable=1;" parent="1" vertex="1">
                    <mxGeometry x="50" y="170" width="380" height="240" as="geometry"/>
                </mxCell>
                <mxCell id="204" value="&lt;span style=&quot;&quot;&gt;AWS Lambda&lt;/span&gt;" style="sketch=0;points=[[0,0,0],[0.25,0,0],[0.5,0,0],[0.75,0,0],[1,0,0],[0,1,0],[0.25,1,0],[0.5,1,0],[0.75,1,0],[1,1,0],[0,0.25,0],[0,0.5,0],[0,0.75,0],[1,0.25,0],[1,0.5,0],[1,0.75,0]];outlineConnect=0;fontColor=#5A6C86;gradientColor=#F78E04;gradientDirection=north;fillColor=#D05C17;strokeColor=#ffffff;dashed=0;verticalLabelPosition=bottom;verticalAlign=top;align=center;html=1;fontSize=12;fontStyle=0;aspect=fixed;shape=mxgraph.aws4.resourceIcon;resIcon=mxgraph.aws4.lambda;labelBackgroundColor=none;" parent="1" vertex="1">
                    <mxGeometry x="260" y="270" width="80" height="80" as="geometry"/>
                </mxCell>
                <mxCell id="209" value="&lt;font&gt;AWS Cloud&lt;/font&gt;" style="points=[[0,0],[0.25,0],[0.5,0],[0.75,0],[1,0],[1,0.25],[1,0.5],[1,0.75],[1,1],[0.75,1],[0.5,1],[0.25,1],[0,1],[0,0.75],[0,0.5],[0,0.25]];outlineConnect=0;gradientColor=none;html=1;whiteSpace=wrap;fontSize=12;fontStyle=0;container=1;pointerEvents=0;collapsible=0;recursiveResize=0;shape=mxgraph.aws4.group;grIcon=mxgraph.aws4.group_aws_cloud_alt;strokeColor=#232F3E;fillColor=none;verticalAlign=top;align=left;spacingLeft=30;fontColor=#5A6C86;dashed=0;labelBackgroundColor=none;" parent="1" vertex="1">
                    <mxGeometry x="-610" y="130" width="1250" height="320" as="geometry"/>
                </mxCell>
                <mxCell id="213" value="FastAPI" style="shape=image;imageAspect=0;aspect=fixed;verticalLabelPosition=bottom;verticalAlign=top;labelBackgroundColor=none;fontColor=#5A6C86;image=data:image/png,iVBORw0KGgoAAAANSUhEUgAAAJAAAACQCAYAAADnRuK4AAAACXBIWXMAAAjDAAAIwwGgMuHsAAAAGXRFWHRTb2Z0d2FyZQB3d3cuaW5rc2NhcGUub3Jnm+48GgAAE0BJREFUeJztnXt4FdW5h99v9k42iCjXoHjhogJWAlKg0YqCp7XaY61WrLVHD4iPhoQg4im3eI6GWJUQfUp7UG72WKVW+yigKCJYCUQE8QJWoFZAS/CCmoSbEHLbM9/5I4mGkOveM3tmb+b9h+y5rPXbm9+sWTNrre8TVeVEQubO6k7A6I8hvbCs3hjSC6U7QheUrkAXIAAkAx1qTysDqgAT2I+wD2U/QgmW7sEwisAsopqdemd2iStfzCUkkQ0kf3ioB8nBNEQvBh2EkgpymrOV8iXodpQPwNiElG/SjJxiR+t0kYQykOTnd+RU/TcsrgRGAee6LKkW3YWwDjVWc5i1Om3aYbcV2UXcG6j2lnQdwmjQS0GS3NbUAlUg68FaSqDyRU3PKXVbUDTEpYFk7twQgbLrMBiDyuVA0G1NERIGChAWU33Scr3zzkq3BbWVuDKQzMs7F5HxwC1AV7f12EwpyNMEZKGmT/3EbTGtJS4MJI89/H3EvBPhJpCA23ocxgJexTIf1ax71rgtpiU8bSB5NG8UAWaC/NBtLS7xJhYzNWv6G24LaQpPGkgem5VGwPgtyii3tXiEAkTu04xp77gtpCGeMpA8kd+TCutBhP8AEbf1eAtVkGUEmK7p0z91W00dnjCQLFqUhLl/Csh04CS39XicMpRZBDvP0fT0arfFuG4gWTh7MBaLgCGuCok/tqM6XifMeNdNEa4ZSHJzk+nRLhfVySfAk5VDqAnyO4orcjUnp8oNBa4YSObn9wddjN/q2MV2xByjGfdsj3XFRqwrlPn5Y0HfxjePnQxEA+tl/uxbYl1xzFogmTs3RNLRWSgTY1LhicsfKa6YHKtbWkwMVDOtIrAESHO8Mh8Q3oKKX8ZiGonjBpJ5+ecj1ksgvRytyKchRQSsn2t69kdOVuJoH0jmzxqJaKFvHlfojWkUyvxZlzpZiWMGknl5V4G8BHRyqg6fFukMslIWzr7GqQocMZDMn301wvMg7Z0o36ctSAiLZ2Ve/vVOlG67gWRB3i+A50FCdpftEzHJiD4t8/Ovs7tgWzvR8lj+FRjWMt88nqUKy7pRs7JX2lWgbQaS+bNGgvEy0M6WAn0cQstRuVonTH/TjtJsMZAsmjUA0ygEOkcvycdxhP2Y1mWalb0z2qKi7gPJotxuhOUFfPPED0oXDGOF/OGhHtEWFZWBJDc3GbPdC4icE60Qn5jTm1DgOcnNTY6mkOhaoB6hOfjDE/GLcjHdQw9HU0TEfaDaUfXHo6ncxyOIjNOMaX+J6NRIDFTbad6EP/00USjDstIi6VS3+RYmixYlEZYn8M2TSHTAMP4cSX+o7X0g68D9iAxr83k+XmcIPUL3tfWkNt3CZGH+MCxrfSLOYU4OBBjbb2DMZ2hGQ7Vl8twnO6yjYbsWZ6iJFbhEs6Zuae0ZrTaQ5OYGSQltBLkwYn0eZmz/gcbjo34aNxfGnsOH9Na1K80NX35u74QuZRvBzhe1dslQ66+4lNDURDUPwKTUYXHT+jyz60NryPNPhm03D4CQSvjAXa0+vDUtkCyYcwZatZ3vQr4lFD85q4+s+PcbPB8iprSiXDMKV1kvFX1sOVzVEQKhCzR98pctHdi6q06r8khQ8wDclTrU87euNZ8X6bAlT4ZjYB6AkwlXPNCaA1tsgWR+/kVgFSbqWvWBXbrJ5htuDYpHv15FOMwDWzaaj/z9HcuK7Ro+C/QSzZyxubmDWm62Re9HPfrr2sDkwcMNr5rnwwOlOmbNCnPrvhI3lg8bCPcDVzd/UDPIvIcuT+QQKyntO3Bj3wGe6zyrKo9t32KlLV0cdsk8tULkCnls9mXNHdJ8CySBNr9Yiicmpn4/0C7orb7zF2WHddzalea6Lz51P2wKgMG9wBVN724CmTd7BHCJE5q8wEnBJG4fMMhTrc+y3TutoUueCnvGPDWMrOkHN05zP+DdDojxDGP7DzS6tffGcN43VZVkvfGaedNry839FeVuy2kEa3JTexp9CquNhrodF4IvxAJDhK033hbs16mL673nt7/eq7cWrDA/+eaQl1qdBqhJIDCwseixjRukJpRuQpoH4Jpe5xhumydsWTyweaM5avkzYW+bB0ACmOYdje5p2AJJbm4yKe12A91jIc0N1l376+APTzvTNQPtPLhfxxa8Ym4u+crjxjmGUsIn9WkYDP34VqZ76BcksHmGpZwmbprnmV0fWmnLFofjzDwA3Ugq+1nDjcc/wxqMId6+Whv4r8E/cOXWXFJxVMcXrjZXFH0cv7+uylhgaf1Nx9zCZFFuN8x2nxK/uSea5eyOHeWjm9KDQSO2HvrbZ7v1jsJV4b1lR2Jar/1oNZaerVnZ++q2HPtLmqHrSVDzAExKHW7E0jzl4WqmbCwwf7ZySQKYB0CSCMi19bc0MIs4EsHBC5ySHGJs/wti5p4tJV/p2IIV5o6DB+L3ltU4o4En6j58+4NKfn5HYIQbimLBHecPNk5Ndn7ZvlU7jnXZ8mfCCWgeUBkp83JPrvv4XQtUk+kvqlWKXiVoGGSlft/x1uezI9/ouLUrzTf2fpZ4xvmOZKTdSOAVqG8gS68C11/MOsIv+/Y3zuzQ0dEvt2z3TiuzcLV5oLLCyWq8wpUcZyDkcpfEOM6dqUMda30OVVUw+c015l92fRiLmYIeQb/1igG1YXihr2t6HGTUGWfLsJTTHWl9Cvd+qkOe/1P4xDIPAP1k7qzuUNeJTg5e7KocB5k8aLjtrU+1ZfLA5o3mlSueC39+5Egi93eaQISkYBrU3cJE0xLx7XO/Tp3lqrP62GqgHQf36Zg1K8z3S4sT8BdrA2pdDKyoMZAy2F01zjB50HDDsGm+s6ryxI5t1m82FJj2rQSNa1Lh2xaI1ERrgbq0a8+vzz3fltanuPyoji9cZb6y55ME+5WiQHUQQFDmzupO0Ig61JnXyBo4xOiQFP1rrZeKPrYyClebpRVHbVCVQIj0lMdmdQ0SZIDbWuwmFAiQ/r0Lo2p9ysPV3PvOevN/t20+0Z6wWo8ROC8IRsLlsbil3wVGj/YdIu78bK4dx9qZiEMRdqJWryDQ220ddiLAXYMiC5QQtix+v/U9K+fd9Wa15Tc8LSN9gqBnJdIQxlVn95UBnbq2+QtZqsz7x/vWlpKv9Nre58V0wtDX5Ud1/ZdxOH4m2isIkuK2Dju5e9DwiAIlGCJMSh1qTEodarekZnnts916+7pXwzGt1C5UUoJAN7d12EVq124ysudZcdGcJkQnXbRrEOjqtg67+M3gNM8GSqhPAnXSuwaBU9xWYQc9O5zMDX37e3otm6kWcz54z5r53ptmlWm6LccOTg0CCZGaaeLAoYHkgHfjRH125Bu9tWClGZed5SaRUBA0Od6fwjokJTFuQKpnW59lu3daGYWrzYOJN9ksFIT4n8Z624BBRtd23suueaiqgknrXzef/fif8dtRbhYNxf0SnoAIEwc6P9+5raz9Yo/etnal+UVZYs8XCgJVgPcu31Zybe/zjD6ndPLMPbjSDPPbza7ENHQBqQyCxLWB7h5s/4zDSPno4D4ds+Zl8++lLoaliy2VQaCyxcM8yvCU0yWtR0/XW58Td7KZVgZBD8XrcMbUIWmutz7F5Uc1vXCVufJEnGymcjCISCnKeW5raSu9Op4i1/Q6x1UDLS/aZWUUrjb3eTIsXQwQSoMo+93WEQmTBw03AuKOfw5XVTJjU6H5+D8/SNDH89ai+4OgxfH2IrFTqB1j+sUuUEJ93v56r44tWGH+y/Nh6WJCSRDkM7dVtJX07w02OibHdgTGn2zWCCp7gojsJo7eVyQZBpkXDIlp67Pn8CEdt3al+aYT6ZXiGt0dBLMongKy/urc840zHA6UUJ9ndn1oTVz/N/NIdVWsqowfxNgTxKjagel83By7iHS+c1spLT9K5hurzeWxSa8Un1SU7zQ0PacUocXEYl7gR2f2lsFdUxxvfQq+2KPDlj4Z9s3TDMrnenfO/rqlzduA091V1DKTHW59XMzNFX+IboNv4wPpVpCfuKmnJfp36ixXnNnbMQP980DNONYHbqZXiieE+gYyNuHxxfG/uTDNtkAJ9dHa5TwzNq0zKxNjmmlsUHkL6gwUKN+IGVKvprVMad+Bm86xJ1BCfb4uL9M71q0yV336L29fPZ5DlUDl21D7/K7pOaUgx2Vi8QpZA4cYdieGe2H3Tmvwc38K++aJiI9qPHNsnOh1wLmuyGmG9sEgd5w/2LbZ8t9UVZLtj2NFh7Ku7s/6QTZXgd7ugpxmGdPPvsRw7xTv1bFrvJ6bKw4Qea3uz+8MpOUFSKgSxDPLfASYaEN857Blkff+JvPBzRst0388jxKtRCsL6z59+5+jE3KOgPGmO6Ia5+re50r/CAIl1Kfo8CH98ct/Dd//3gbfPLYghTVeqaFBz9RaCvKjWEtqirsHDYuq7+OPYzmA6pL6H4+9PQQqXwQ8ESliaPfT5NLTIwuUUFpRrqNXvxC+teAV3zy2otVUVr5Uf8sxBqp9NCuIqaYmiHS1xeufF+mwJU+GX47nxG5eReRvenfOMTNYj3+5IixGcXVY44wOJ8sv+rQtyFNFOMz/vPOGOXfbZst3jkNYsrjhpuMN9HXFi6S0K8HFvKl3DRpuJBmt7/78Y3+pjil42dy2r9T3jnOUYrZ/peHG465yzcmpAp6JiaRG6JiczLgBA1vV+mhtbq60ZYvDvnkcRniqYcZmaCq9ZVJgHtXhiSAxj5dy+4DWJYb7vOywjitYaRbu/dQ3juOoifJ4Y3savdL19im7UVnhrKjjCYgwYWDL852X7d5pDX3+ybBvnhihvKCZM/7V2K7mRijnANc2s992bujb3+jV8dQmH92/qapk8oY15tM7/+GPY8US1T80tavJq10nTN8IxPTN9KRmZhy+/fVe/cHSp8K+eWLOWs3Kfrupnc3PkRDrXtRYa7ukRris51kyvJHEcP44lttYDzS3t9n+hmZkbyBGLxYbe3G48+B+HfHin/1xLPdYpZnZ65s7oOXHZZH7cHjl4XmndpKfntX3u4FdVf7vo61W2rLF4S0lJ3hiN/ewEM1p6aAWDaQZ095BnX0vdFe9xHAlFUd19GsvhjMLV5tl1SdSrB2voU9pxoz3WzqqdfNE2xn/TaVeC5zc4rFtpEu79tx83vcMqAn7n164Kry37EhLp/k4iXCYCmtmaw5t3Rvf26btRcmLSlQTZF5woWGIMGVjgXnNyiW+ebyApQ/o5Htatdi09TPVSyp+R0roBpALIxbWgFAgwPCUnjJ86VPhBAj7nyDoVoJdHm3t0aJt6B/LwtmDsXiLthivGU5NDnE0XI0fLsUzhLGMEZo1dUtrT2jTlAkdP/0Dat5Q28KhqkrfPN7i4baYByKJ6xLoPBN4t83n+Xgc3UJxxYNtPatNt7BvT1r08DmY1rs48FTm4wplWFaaZmXvbOuJEU0b1fSpnwCTIjnXx4MImZGYB6IITaaZ058GFkR6vo9nmKsZ0/8a6cnRLdorrpiC8FZUZfi4yQYCnWdEU0BEfaBjCliU241waD0i50RVkE+sKUIqRmhGTnE0hURtIACZn98f9A2gc9SF+TiPsB/TuizSfk99bIm5o5nTdoB1A+gJGvM/rjiKxfV2mAdsjO9bO29kNGjcZv85AagCfl0729QWbI36pZkzXgfjP/HI8mifYwhjcLNmTn/VzkJtDxunmdNeBH4JJFyG2TimCtGbdfz05XYXbEsnutGCH80bRUCW4b+tdpujqN6oE2a81vKhbccxAwHIvNkjMFiC0sWxSnyaYx/KaDv7PA1x1EBQN25mvgQSd0nt4hrV3Yjx85onZOdwPO+Epk/9BKm8HNSxq8DnODZg6ginzQMxStOjGTnFFFf+GHg4FvWd4PyR4oor9c7sklhU5vgt7LgKF+TfjOqjQIeYVpz4HEE1SyfMeDaWlcbcQACyIK83yFMoF8e88kRE9T0CgbE6fuquWFftSqY5zZhRhNH5x4jm4790jIYwonkEu4x0wzzgUgt0jID5jwwCcyEw1FUhcYduxTAydPy099xU4XquS82cspXiiktR7gH8RWEtIRxGdTrFlRe5bR7wQAtUH/n9Q6cTCtwLOs6N6GjeRrVmiXkgWydM/cptNXV4ykB1yPy8oQj3o3KF21q8ga5GuK81a9VjjScNVIcsmHUJaswERrqtxSXWYlkzNSvbs9OGPW2gOmRB3hAsJiHyK2xaFethLOBVkNmaOW2T22JaIi4MVIfMz+uLyHiUW3AxjrVDFIM+TVJwod4+ZbfbYlpLXBmoDsnNTaZH6BpUxoL+CCTJbU0RUoXwOpYspqR8RW2M7rgiLg1UH5mT24X2oeuA0SiXeSnfWeNoJUghyFIqypc3zD0Rb8S9geojjzzSgQ7mKFSvQhgF9HM/kbAqKjsQ1gGrKQus0ylTytzVZB8JZaCGyKLcblgnXQTmRSiDUVIR6elsrfoFyDZEt0JgE2b4Lc3K3udsne6R0AZqDJmT24Xk5P4EjF6o9gHORiUF0a5AV5Au1DzpJVE3HVc4jBIGqlH2I+yr+VeLUdmDQREqRWDt0MwZB9z6bm7w/zcKvkekkLzVAAAAAElFTkSuQmCC;" parent="209" vertex="1">
                    <mxGeometry x="940" y="70" width="80" height="80" as="geometry"/>
                </mxCell>
                <mxCell id="214" value="&lt;font color=&quot;#5a6c86&quot;&gt;Amazon Comprehend&lt;/font&gt;" style="sketch=0;points=[[0,0,0],[0.25,0,0],[0.5,0,0],[0.75,0,0],[1,0,0],[0,1,0],[0.25,1,0],[0.5,1,0],[0.75,1,0],[1,1,0],[0,0.25,0],[0,0.5,0],[0,0.75,0],[1,0.25,0],[1,0.5,0],[1,0.75,0]];outlineConnect=0;fontColor=#232F3E;gradientColor=#4AB29A;gradientDirection=north;fillColor=#116D5B;strokeColor=#ffffff;dashed=0;verticalLabelPosition=bottom;verticalAlign=top;align=center;html=1;fontSize=12;fontStyle=0;aspect=fixed;shape=mxgraph.aws4.resourceIcon;resIcon=mxgraph.aws4.comprehend;" vertex="1" parent="209">
                    <mxGeometry x="1110" y="62" width="78" height="78" as="geometry"/>
                </mxCell>
                <mxCell id="208" value="Frontend" style="fillColor=none;strokeColor=#5A6C86;dashed=1;verticalAlign=top;fontStyle=0;fontColor=#5A6C86;labelBackgroundColor=none;" parent="1" vertex="1">
                    <mxGeometry x="-570" y="170" width="520" height="240" as="geometry"/>
                </mxCell>
                <mxCell id="FrontendApiF8B178F0|FrontendCloudFrontDistribution2821C825" value="DomainName" style="edgeStyle=orthogonalEdgeStyle;rounded=1;orthogonalLoop=1;jettySize=auto;html=1;labelBackgroundColor=none;fontColor=#EA6B66;noEdgeStyle=1;orthogonal=1;" parent="1" edge="1">
                    <mxGeometry relative="1" as="geometry">
                        <Array as="points">
                            <mxPoint x="62" y="247.5"/>
                            <mxPoint x="150" y="275"/>
                        </Array>
                        <mxPoint x="230" y="270" as="targetPoint"/>
                    </mxGeometry>
                </mxCell>
                <mxCell id="194" value="&lt;font&gt;Amazon CloudFront&lt;/font&gt;" style="sketch=0;points=[[0,0,0],[0.25,0,0],[0.5,0,0],[0.75,0,0],[1,0,0],[0,1,0],[0.25,1,0],[0.5,1,0],[0.75,1,0],[1,1,0],[0,0.25,0],[0,0.5,0],[0,0.75,0],[1,0.25,0],[1,0.5,0],[1,0.75,0]];outlineConnect=0;fontColor=#5A6C86;gradientColor=#945DF2;gradientDirection=north;fillColor=#5A30B5;strokeColor=#ffffff;dashed=0;verticalLabelPosition=bottom;verticalAlign=top;align=center;html=1;fontSize=12;fontStyle=0;aspect=fixed;shape=mxgraph.aws4.resourceIcon;resIcon=mxgraph.aws4.cloudfront;labelBackgroundColor=none;" parent="1" vertex="1">
                    <mxGeometry x="-535" y="270" width="80" height="80" as="geometry"/>
                </mxCell>
                <mxCell id="196" value="&lt;font&gt;Amazon API Gateway&lt;/font&gt;" style="sketch=0;points=[[0,0,0],[0.25,0,0],[0.5,0,0],[0.75,0,0],[1,0,0],[0,1,0],[0.25,1,0],[0.5,1,0],[0.75,1,0],[1,1,0],[0,0.25,0],[0,0.5,0],[0,0.75,0],[1,0.25,0],[1,0.5,0],[1,0.75,0]];outlineConnect=0;fontColor=#5A6C86;gradientColor=#FF4F8B;gradientDirection=north;fillColor=#BC1356;strokeColor=#ffffff;dashed=0;verticalLabelPosition=bottom;verticalAlign=top;align=center;html=1;fontSize=12;fontStyle=0;aspect=fixed;shape=mxgraph.aws4.resourceIcon;resIcon=mxgraph.aws4.api_gateway;labelBackgroundColor=none;" parent="1" vertex="1">
                    <mxGeometry x="-375" y="270" width="80" height="80" as="geometry"/>
                </mxCell>
                <mxCell id="197" value="&lt;span style=&quot;&quot;&gt;AWS Lambda&lt;/span&gt;" style="sketch=0;points=[[0,0,0],[0.25,0,0],[0.5,0,0],[0.75,0,0],[1,0,0],[0,1,0],[0.25,1,0],[0.5,1,0],[0.75,1,0],[1,1,0],[0,0.25,0],[0,0.5,0],[0,0.75,0],[1,0.25,0],[1,0.5,0],[1,0.75,0]];outlineConnect=0;fontColor=#5A6C86;gradientColor=#F78E04;gradientDirection=north;fillColor=#D05C17;strokeColor=#ffffff;dashed=0;verticalLabelPosition=bottom;verticalAlign=top;align=center;html=1;fontSize=12;fontStyle=0;aspect=fixed;shape=mxgraph.aws4.resourceIcon;resIcon=mxgraph.aws4.lambda;labelBackgroundColor=none;" parent="1" vertex="1">
                    <mxGeometry x="-215" y="270" width="80" height="80" as="geometry"/>
                </mxCell>
                <mxCell id="198" value="&lt;font&gt;users&lt;/font&gt;" style="sketch=0;outlineConnect=0;gradientColor=none;fontColor=#5A6C86;strokeColor=none;fillColor=#879196;dashed=0;verticalLabelPosition=bottom;verticalAlign=top;align=center;html=1;fontSize=12;fontStyle=0;aspect=fixed;shape=mxgraph.aws4.illustration_users;pointerEvents=1;labelBackgroundColor=none;" parent="1" vertex="1">
                    <mxGeometry x="-730" y="270" width="80" height="80" as="geometry"/>
                </mxCell>
                <mxCell id="201" value="" style="edgeStyle=orthogonalEdgeStyle;html=1;endArrow=block;elbow=vertical;startArrow=none;endFill=1;strokeColor=#545B64;rounded=0;fontColor=#5A6C86;entryX=0;entryY=0.5;entryDx=0;entryDy=0;entryPerimeter=0;" parent="1" source="194" target="196" edge="1">
                    <mxGeometry width="100" relative="1" as="geometry">
                        <mxPoint x="10" y="660" as="sourcePoint"/>
                        <mxPoint x="-400" y="290" as="targetPoint"/>
                    </mxGeometry>
                </mxCell>
                <mxCell id="202" value="" style="edgeStyle=orthogonalEdgeStyle;html=1;endArrow=block;elbow=vertical;startArrow=none;endFill=1;strokeColor=#545B64;rounded=0;fontColor=#5A6C86;entryX=0;entryY=0.5;entryDx=0;entryDy=0;entryPerimeter=0;exitX=1;exitY=0.5;exitDx=0;exitDy=0;exitPerimeter=0;" parent="1" source="196" target="197" edge="1">
                    <mxGeometry width="100" relative="1" as="geometry">
                        <mxPoint x="-260" y="370" as="sourcePoint"/>
                        <mxPoint x="-370" y="300" as="targetPoint"/>
                    </mxGeometry>
                </mxCell>
                <mxCell id="203" value="&lt;font&gt;Amazon API Gateway&lt;/font&gt;" style="sketch=0;points=[[0,0,0],[0.25,0,0],[0.5,0,0],[0.75,0,0],[1,0,0],[0,1,0],[0.25,1,0],[0.5,1,0],[0.75,1,0],[1,1,0],[0,0.25,0],[0,0.5,0],[0,0.75,0],[1,0.25,0],[1,0.5,0],[1,0.75,0]];outlineConnect=0;fontColor=#5A6C86;gradientColor=#FF4F8B;gradientDirection=north;fillColor=#BC1356;strokeColor=#ffffff;dashed=0;verticalLabelPosition=bottom;verticalAlign=top;align=center;html=1;fontSize=12;fontStyle=0;aspect=fixed;shape=mxgraph.aws4.resourceIcon;resIcon=mxgraph.aws4.api_gateway;labelBackgroundColor=none;" parent="1" vertex="1">
                    <mxGeometry x="100" y="270" width="80" height="80" as="geometry"/>
                </mxCell>
                <mxCell id="205" value="" style="edgeStyle=orthogonalEdgeStyle;html=1;endArrow=block;elbow=vertical;startArrow=none;endFill=1;strokeColor=#545B64;rounded=0;fontColor=#5A6C86;entryX=0;entryY=0.5;entryDx=0;entryDy=0;entryPerimeter=0;exitX=1;exitY=0.5;exitDx=0;exitDy=0;exitPerimeter=0;" parent="1" source="203" target="204" edge="1">
                    <mxGeometry width="100" relative="1" as="geometry">
                        <mxPoint x="230" y="390" as="sourcePoint"/>
                        <mxPoint x="120" y="320" as="targetPoint"/>
                    </mxGeometry>
                </mxCell>
                <mxCell id="210" value="" style="edgeStyle=orthogonalEdgeStyle;html=1;endArrow=block;elbow=vertical;startArrow=none;endFill=1;strokeColor=#545B64;rounded=0;fontColor=#5A6C86;entryX=0;entryY=0.5;entryDx=0;entryDy=0;entryPerimeter=0;" parent="1" source="198" target="194" edge="1">
                    <mxGeometry width="100" relative="1" as="geometry">
                        <mxPoint x="-690" y="450" as="sourcePoint"/>
                        <mxPoint x="-750" y="440" as="targetPoint"/>
                    </mxGeometry>
                </mxCell>
                <mxCell id="211" value="" style="edgeStyle=orthogonalEdgeStyle;html=1;endArrow=block;elbow=vertical;startArrow=none;endFill=1;strokeColor=#545B64;rounded=0;fontColor=#5A6C86;exitX=1;exitY=0.5;exitDx=0;exitDy=0;exitPerimeter=0;entryX=0;entryY=0.5;entryDx=0;entryDy=0;entryPerimeter=0;" parent="1" source="197" target="203" edge="1">
                    <mxGeometry width="100" relative="1" as="geometry">
                        <mxPoint x="-60" y="530" as="sourcePoint"/>
                        <mxPoint x="90" y="550" as="targetPoint"/>
                    </mxGeometry>
                </mxCell>
                <mxCell id="212" value="Next.js" style="shape=image;imageAspect=0;aspect=fixed;verticalLabelPosition=bottom;verticalAlign=top;labelBackgroundColor=none;fontColor=#5A6C86;image=data:image/svg+xml,PHN2ZyB4bWxucz0iaHR0cDovL3d3dy53My5vcmcvMjAwMC9zdmciIGZpbGw9Im5vbmUiIHZpZXdCb3g9IjAgMCAxODAgMTgwIiBoZWlnaHQ9IjE4MCIgd2lkdGg9IjE4MCI+CjxtYXNrIGhlaWdodD0iMTgwIiB3aWR0aD0iMTgwIiB5PSIwIiB4PSIwIiBtYXNrVW5pdHM9InVzZXJTcGFjZU9uVXNlIiBzdHlsZT0ibWFzay10eXBlOmFscGhhIiBpZD0ibWFzazBfNDA4XzEzOSI+CjxjaXJjbGUgZmlsbD0iYmxhY2siIHI9IjkwIiBjeT0iOTAiIGN4PSI5MCIvPgo8L21hc2s+CjxnIG1hc2s9InVybCgjbWFzazBfNDA4XzEzOSkiPgo8Y2lyY2xlIHN0cm9rZS13aWR0aD0iNiIgc3Ryb2tlPSJ3aGl0ZSIgZmlsbD0iYmxhY2siIHI9Ijg3IiBjeT0iOTAiIGN4PSI5MCIvPgo8cGF0aCBmaWxsPSJ1cmwoI3BhaW50MF9saW5lYXJfNDA4XzEzOSkiIGQ9Ik0xNDkuNTA4IDE1Ny41Mkw2OS4xNDIgNTRINTRWMTI1Ljk3SDY2LjExMzZWNjkuMzgzNkwxMzkuOTk5IDE2NC44NDVDMTQzLjMzMyAxNjIuNjE0IDE0Ni41MDkgMTYwLjE2NSAxNDkuNTA4IDE1Ny41MloiLz4KPHJlY3QgZmlsbD0idXJsKCNwYWludDFfbGluZWFyXzQwOF8xMzkpIiBoZWlnaHQ9IjcyIiB3aWR0aD0iMTIiIHk9IjU0IiB4PSIxMTUiLz4KPC9nPgo8ZGVmcz4KPGxpbmVhckdyYWRpZW50IGdyYWRpZW50VW5pdHM9InVzZXJTcGFjZU9uVXNlIiB5Mj0iMTYwLjUiIHgyPSIxNDQuNSIgeTE9IjExNi41IiB4MT0iMTA5IiBpZD0icGFpbnQwX2xpbmVhcl80MDhfMTM5Ij4KPHN0b3Agc3RvcC1jb2xvcj0id2hpdGUiLz4KPHN0b3Agc3RvcC1vcGFjaXR5PSIwIiBzdG9wLWNvbG9yPSJ3aGl0ZSIgb2Zmc2V0PSIxIi8+CjwvbGluZWFyR3JhZGllbnQ+CjxsaW5lYXJHcmFkaWVudCBncmFkaWVudFVuaXRzPSJ1c2VyU3BhY2VPblVzZSIgeTI9IjEwNi44NzUiIHgyPSIxMjAuNzk5IiB5MT0iNTQiIHgxPSIxMjEiIGlkPSJwYWludDFfbGluZWFyXzQwOF8xMzkiPgo8c3RvcCBzdG9wLWNvbG9yPSJ3aGl0ZSIvPgo8c3RvcCBzdG9wLW9wYWNpdHk9IjAiIHN0b3AtY29sb3I9IndoaXRlIiBvZmZzZXQ9IjEiLz4KPC9saW5lYXJHcmFkaWVudD4KPC9kZWZzPgo8L3N2Zz4=;" parent="1" vertex="1">
                    <mxGeometry x="-150" y="200" width="80" height="80" as="geometry"/>
                </mxCell>
                <mxCell id="219" value="" style="edgeStyle=orthogonalEdgeStyle;html=1;endArrow=block;elbow=vertical;startArrow=none;endFill=1;strokeColor=#545B64;rounded=0;fontColor=#5A6C86;entryX=0;entryY=0.5;entryDx=0;entryDy=0;entryPerimeter=0;exitX=1;exitY=0.5;exitDx=0;exitDy=0;exitPerimeter=0;" edge="1" parent="1" source="204" target="214">
                    <mxGeometry width="100" relative="1" as="geometry">
                        <mxPoint x="190" y="320" as="sourcePoint"/>
                        <mxPoint x="270" y="320" as="targetPoint"/>
                    </mxGeometry>
                </mxCell>
                <mxCell id="225" value="Typetalk" style="shape=image;imageAspect=0;aspect=fixed;verticalLabelPosition=bottom;verticalAlign=top;fontColor=#5A6C86;image=data:image/png,iVBORw0KGgoAAAANSUhEUgAAAZAAAAGQCAMAAAC3Ycb+AAAAY1BMVEVMaXH/ZFX/ZFX/ZFX/ZFX/ZFX/ZFX/ZFX/ZFX/ZFX/ZFX/ZFX/ZFX/ZFX/ZFX/ZFX/ZFX/////i4D/sqr/2dX/bmD/9vX/npX/4uD/gXX/z8r/7Or/xcD/qKD/lYr/d2r/vLWowkBOAAAAEHRSTlMA0DDgYPBAgMAQoJBQILBwEOTn5QAAAAlwSFlzAAAWJQAAFiUBSVIk8AAABppJREFUeNrt3QlW40YUQNFCFho8BhvMTPf+V5mQEEIHGmQslb7gviXUPTVJMqQkafBW1aaeN83JH9+upmkWdVm1cSyqzfwbOrzqtFmUxfgYdYPipcp6Mx5KW64JvNFsvqQRbaLkNqnmBv2jeVKv8k2OmfHu0rrKwlGfGuqunZQ4oq1cJY5oJMPt7yWOz93lh7maFK6An27R/4OVdmFYj7mY9L1uVU66x56BW9Pjy06SwsPcXpq3DlfB7om9HLc8tgq1bLWWq16rbR/RNpLjPGwf/W8kR2ztSx6hREqDF0qERywRHrFEloYtlIjzVSwRHkPXuJ9P+Ybo5WCGDvj8weuPLFUOvLE6bW3ok9zYbejZqm0g09tGKqOUsdmH20jre5+sLSxY01q0CiOUuRNX9GBtXAmncz20o4/RO08Za6MzRr/9dWjrmUmsKWKCxJoiJkiwKWKCBJsiJkisKeIOMmKt1yCxqj3FitXMD6WCtXTmDb6t29KDbev+PtzI/e+zudaIjNzaihV6zXLGCnbOcsaKdc7yMVawu6EHvQFa+dgk7sHXaMTaRDxYDLaJbIxGrJuID3pDVNnTY1Xb04Pu6p4sxqhxT4/VqUe9wfLgJFgFkJjnXqfeIC2BxLyIAAkG4odswUCMBBABmUBzILFqgAARECACAkRAgAgIECBABASIgAARECACAgQIkM93uXvVzfkbXQLJ0/lZt3ZAgAABAgTIJ0HOgQABAgQIECBAgAABAgQIECBAgAABAgQIECCPXWxfdQ1kxLZnw3f18ksIIOOD/BIQIECAAAECBAgQIECAAAECBAgQIECAAAECBAgQIECAAAECBAgQIECAAAECBAgQIECAAAECBAgQIECAAAECBAgQIECAHNYbfzjgVVcdx/p21yEgx+cvOQABAmRC3QGJ1Q4IECBAgAABAgQIECBAgAABAgQIECBAgAABAgQIECBAgAABAgQIECBAgIwCcgUkFsgZECBAgAABAgQIECBAgAABAgQIECBAgAABAgQIECBAgAABAgQIECBAgAABAgQIECBAgAABAgQIECBAgAABAgQIECBAgIzTQ1eQLZAsbYFMFOQeSCyQOyBZuugKcgUkT53/r+oFkCzddgV5AJKl8y+8iUwS5GdXkD2QLN133kQugYQ6907wnDVJkM7n3gle1icJ0v2YNb0pMk2Qm+5T5B5IqF39bH8NZPiuu4OcXV0AGb79ASI3QIbv7gCQad3XJwpyeQjIpFatiYJcHARytt8CiXPw/Wcj+QEk0Jr1N8klkCHXrP3Z4Z3vLrfb7QWQ0c9ZE3q8NVmQLZBgXQGZ+rYOZNhugcRqB+QLnHyBxJsiQILtIkCCHbSADNc5kFhdA/kC+zqQYA9QgARbtIAM2j2QYN0ACfYE5RZIsG1kDyRWD0Am/QgFSDARIMFEgAQTARJMBEgmkT2Qad5HgGS7s18BCdZPIMHa7oEEW7ZugESbJLdAgrXbAwm2br1LAiQYCZBxSO5vgUTb3u/2QIL18IYJkHG7vr/ZAwnWj+3u7vwWSLzZsvWHAwQEiIAAERAgAiIgQAQEiIAAERAgAiIgQAQEiPqoBgJEHUAaQwFEQOK3eQJZG4oYVU8gtaEAojdqn0AqQxGjBCRUJ/+CuBnGqHkGmRmMSNcQF5Eglc8gjlkhKp5BlgYj0iErpZXBCLWn29VDtHgBMjcc47d8AVIajvFrk00k5j39sRMDEuda+NjCgMS5hTxWGJCRm6Vfc/ANdOi1ZoVbsaxZ0VYsa1aoM9ZjG4MyZqtXIK1BGbF1ep3nWSO2fAPEth5pS/cid9TKN0F8DTRWpymZIrHPvKbIqBOkTabIFCaIKRLpiOWXIsGOWF7ljlWT3ss3jNkr3gVpPfTN3CK9n309847efgBiX8/b8iMPi1aoBcuiFW3B8r1DoBOWzxhzt+nmkVanxipH69Q120iOTtrOIH6ekKHTIh2QLx4Gr0qJSKDKwzxS66gVyoPIsM1TIjJxDyLRPIhE8yASZT93+g3r4SV77/fzKh1Z6Uljj50U6egKrxB7a92mHmq9Zu+pTeopvz/so1mReqtw/j26RZv6zGnryOlRpZ4r/FYhzvRwAD6upkiD1NZIPrNaLdNgrTxKOfhqXqZBQ3LY7Ni0aehWFq7OHGXKUlu6lnR5TlKlfBVz0+SDtWqVMrdk8luNRZFGabmwdr2+dGxG0nja4kso/x1xm7pKEarKuvnmLM26Xq5SrNrqL5hv2LKqkiRJAfoTCJWl9dMxslgAAAAASUVORK5CYII=;" vertex="1" parent="1">
                    <mxGeometry x="660" y="310" width="80" height="80" as="geometry"/>
                </mxCell>
                <mxCell id="226" value="" style="edgeStyle=orthogonalEdgeStyle;html=1;endArrow=block;elbow=vertical;startArrow=none;endFill=1;strokeColor=#545B64;rounded=0;fontColor=#5A6C86;entryX=0;entryY=0.5;entryDx=0;entryDy=0;exitX=1;exitY=0.5;exitDx=0;exitDy=0;exitPerimeter=0;" edge="1" parent="1" source="204" target="225">
                    <mxGeometry width="100" relative="1" as="geometry">
                        <mxPoint x="350" y="320" as="sourcePoint"/>
                        <mxPoint x="600" y="239" as="targetPoint"/>
                    </mxGeometry>
                </mxCell>
            </root>
        </mxGraphModel>
    </diagram>
</mxfile>
